<svg width="176" height="59" viewBox="0 0 176 59" fill="none" xmlns="http://www.w3.org/2000/svg">
<path d="M17.1757 47.6886C15.619 47.6886 14.1726 47.5009 12.8367 47.1255C11.5118 46.7391 10.347 46.1704 9.34223 45.4197C8.34855 44.6578 7.56465 43.7249 6.99052 42.6208C6.42744 41.5057 6.11829 40.2194 6.06309 38.762L6.04652 38.5798H11.3627L11.3793 38.7289C11.4566 39.7226 11.7491 40.5617 12.257 41.2462C12.7649 41.9197 13.4384 42.4386 14.2775 42.803C15.1166 43.1563 16.0661 43.3329 17.1261 43.3329C18.9588 43.3329 20.35 42.8692 21.2995 41.9418C22.249 41.0144 22.7238 39.7336 22.7238 38.0996V23.3268H28.1725V38.1492C28.1725 40.0151 27.764 41.6658 26.9469 43.1011C26.1299 44.5364 24.9044 45.6626 23.2703 46.4796C21.6473 47.2856 19.6158 47.6886 17.1757 47.6886ZM35.9325 47.2249V23.3268H57.5451V27.4506H41.3978V33.1808H56.452V37.0065H41.3978V43.1011H57.5451V47.2249H35.9325ZM71.4328 47.2249L63.4006 23.3268H69.0977L74.3807 40.7328H74.4635L80.674 23.3268H85.5927L91.7867 40.7328H91.8861L97.1691 23.3268H102.85L94.8174 47.2249H89.3356L83.1748 30.382H83.0754L76.9146 47.2249H71.4328ZM109.119 47.2249V23.3268H130.732V27.4506H114.584V33.1808H129.639V37.0065H114.584V43.1011H130.732V47.2249H109.119ZM137.929 47.2249V23.3268H143.394V42.952H158.051V47.2249H137.929Z" fill="black"/>
<path d="M165.1 33.9957C163.186 32.9346 162.79 32.0877 162.624 31.5093C162.46 30.9309 162.345 30.0026 163.406 28.0884C163.446 28.0157 163.554 27.8052 163.325 27.6785C163.098 27.5524 162.975 27.7546 162.935 27.8273C161.874 29.7414 161.026 30.1361 160.447 30.3029C159.868 30.4679 158.939 30.5809 157.028 29.5211C156.954 29.4802 156.744 29.3743 156.617 29.6029C156.491 29.8304 156.692 29.9524 156.766 29.9933C158.678 31.0531 159.074 31.9019 159.24 32.4803C159.406 33.0581 159.52 33.9877 158.459 35.9018C158.418 35.9757 158.313 36.1845 158.54 36.3106C158.769 36.4373 158.889 36.2368 158.93 36.1629C159.991 34.2488 160.84 33.853 161.417 33.6866C161.996 33.5204 162.924 33.4069 164.838 34.4679C164.912 34.5088 165.121 34.6158 165.249 34.3861C165.374 34.1597 165.174 34.0366 165.1 33.9957Z" fill="black"/>
<path d="M140.619 11.029C143.25 12.4874 143.793 13.6544 144.021 14.4482C144.249 15.2431 144.405 16.52 142.946 19.1511C142.891 19.2515 142.748 19.5409 143.06 19.7137C143.374 19.8877 143.539 19.6111 143.595 19.5107C145.054 16.8797 146.22 16.3354 147.015 16.1075C147.809 15.8789 149.085 15.7217 151.717 17.1808C151.818 17.2364 152.106 17.384 152.28 17.07C152.453 16.7582 152.177 16.5877 152.077 16.532C149.445 15.0729 148.901 13.9082 148.674 13.1151C148.446 12.3189 148.288 11.0437 149.747 8.41263C149.803 8.31222 149.95 8.02426 149.636 7.85019C149.324 7.6774 149.154 7.95258 149.098 8.05306C147.64 10.6841 146.476 11.2266 145.68 11.4558C144.886 11.6826 143.61 11.8387 140.979 10.3803C140.878 10.3246 140.588 10.1805 140.415 10.4933C140.242 10.805 140.519 10.9733 140.619 11.029Z" fill="black"/>
<path d="M135.956 19.1957C136.072 18.9868 135.887 18.8737 135.82 18.8366C134.059 17.8606 133.695 17.0806 133.543 16.5495C133.391 16.0171 133.285 15.163 134.261 13.4024C134.298 13.3355 134.396 13.1423 134.186 13.0258C133.978 12.9106 133.864 13.0948 133.827 13.1618C132.851 14.9223 132.071 15.2857 131.54 15.4391C131.007 15.5908 130.153 15.695 128.393 14.7198C128.325 14.6821 128.132 14.5859 128.017 14.7948C127.901 15.0038 128.085 15.1162 128.153 15.154C129.912 16.1293 130.276 16.9105 130.429 17.4423C130.582 17.9734 130.686 18.8281 129.709 20.5898C129.672 20.6568 129.577 20.8501 129.785 20.9653C129.995 21.0818 130.106 20.8974 130.144 20.8305C131.12 19.0687 131.901 18.7049 132.432 18.5526C132.964 18.3991 133.819 18.2948 135.579 19.2708C135.646 19.3079 135.84 19.4058 135.956 19.1957Z" fill="black"/>
</svg>
